<svg xmlns="http://www.w3.org/2000/svg" width="920" height="255" viewBox="0 0 920 255"><style>.m{font-family:ui-monospace,SFMono-Regular,Menlo,Monaco,Consolas,monospace}</style><rect width="100%" height="100%" rx="18" fill="#09090b"/><rect x="1" y="1" width="918" height="253" rx="18" fill="none" stroke="#29292f" stroke-width="2"/><text class="m" x="28" y="33" font-size="16" fill="#e2ded8">&gt; contribution_matrix --live</text><text class="m" x="682" y="33" font-size="13" fill="#d93642">5-CELL RED SNAKE</text><line x1="26" y1="48" x2="894" y2="48" stroke="#2a2a30"/><rect x="42" y="68" width="11" height="11" rx="2" fill="#347d46"/><rect x="42" y="83" width="11" height="11" rx="2" fill="#18181b"/><rect x="42" y="98" width="11" height="11" rx="2" fill="#1f4b2b"/><rect x="42" y="113" width="11" height="11" rx="2" fill="#18181b"/><rect x="42" y="128" width="11" height="11" rx="2" fill="#1f4b2b"/><rect x="42" y="143" width="11" height="11" rx="2" fill="#18181b"/><rect x="42" y="158" width="11" height="11" rx="2" fill="#18181b"/><rect x="57" y="68" width="11" height="11" rx="2" fill="#18181b"/><rect x="57" y="83" width="11" height="11" rx="2" fill="#46a35b"/><rect x="57" y="98" width="11" height="11" rx="2" fill="#18181b"/><rect x="57" y="113" width="11" height="11" rx="2" fill="#1f4b2b"/><rect x="57" y="128" width="11" height="11" rx="2" fill="#46a35b"/><rect x="57" y="143" width="11" height="11" rx="2" fill="#1f4b2b"/><rect x="57" y="158" width="11" height="11" rx="2" fill="#18181b"/><rect x="72" y="68" width="11" height="11" rx="2" fill="#18181b"/><rect x="72" y="83" width="11" height="11" rx="2" fill="#18181b"/><rect x="72" y="98" width="11" height="11" rx="2" fill="#18181b"/><rect x="72" y="113" width="11" height="11" rx="2" fill="#18181b"/><rect x="72" y="128" width="11" height="11" rx="2" fill="#18181b"/><rect x="72" y="143" width="11" height="11" rx="2" fill="#286338"/><rect x="72" y="158" width="11" height="11" rx="2" fill="#347d46"/><rect x="87" y="68" width="11" height="11" rx="2" fill="#18181b"/><rect x="87" y="83" width="11" height="11" rx="2" fill="#1f4b2b"/><rect x="87" y="98" width="11" height="11" rx="2" fill="#1f4b2b"/><rect x="87" y="113" width="11" height="11" rx="2" fill="#1f4b2b"/><rect x="87" y="128" width="11" height="11" rx="2" fill="#46a35b"/><rect x="87" y="143" width="11" height="11" rx="2" fill="#1f4b2b"/><rect x="87" y="158" width="11" height="11" rx="2" fill="#18181b"/><rect x="102" y="68" width="11" height="11" rx="2" fill="#1f4b2b"/><rect x="102" y="83" width="11" height="11" rx="2" fill="#1f4b2b"/><rect x="102" y="98" width="11" height="11" rx="2" fill="#286338"/><rect x="102" y="113" width="11" height="11" rx="2" fill="#1f4b2b"/><rect x="102" y="128" width="11" height="11" rx="2" fill="#18181b"/><rect x="102" y="143" width="11" height="11" rx="2" fill="#18181b"/><rect x="102" y="158" width="11" height="11" rx="2" fill="#18181b"/><rect x="117" y="68" width="11" height="11" rx="2" fill="#1f4b2b"/><rect x="117" y="83" width="11" height="11" rx="2" fill="#1f4b2b"/><rect x="117" y="98" width="11" height="11" rx="2" fill="#1f4b2b"/><rect x="117" y="113" width="11" height="11" rx="2" fill="#1f4b2b"/><rect x="117" y="128" width="11" height="11" rx="2" fill="#1f4b2b"/><rect x="117" y="143" width="11" height="11" rx="2" fill="#18181b"/><rect x="117" y="158" width="11" height="11" rx="2" fill="#18181b"/><rect x="132" y="68" width="11" height="11" rx="2" fill="#18181b"/><rect x="132" y="83" width="11" height="11" rx="2" fill="#18181b"/><rect x="132" y="98" width="11" height="11" rx="2" fill="#46a35b"/><rect x="132" y="113" width="11" height="11" rx="2" fill="#18181b"/><rect x="132" y="128" width="11" height="11" rx="2" fill="#46a35b"/><rect x="132" y="143" width="11" height="11" rx="2" fill="#286338"/><rect x="132" y="158" width="11" height="11" rx="2" fill="#18181b"/><rect x="147" y="68" width="11" height="11" rx="2" fill="#18181b"/><rect x="147" y="83" width="11" height="11" rx="2" fill="#18181b"/><rect x="147" y="98" width="11" height="11" rx="2" fill="#1f4b2b"/><rect x="147" y="113" width="11" height="11" rx="2" fill="#18181b"/><rect x="147" y="128" width="11" height="11" rx="2" fill="#18181b"/><rect x="147" y="143" width="11" height="11" rx="2" fill="#286338"/><rect x="147" y="158" width="11" height="11" rx="2" fill="#18181b"/><rect x="162" y="68" width="11" height="11" rx="2" fill="#1f4b2b"/><rect x="162" y="83" width="11" height="11" rx="2" fill="#18181b"/><rect x="162" y="98" width="11" height="11" rx="2" fill="#1f4b2b"/><rect x="162" y="113" width="11" height="11" rx="2" fill="#347d46"/><rect x="162" y="128" width="11" height="11" rx="2" fill="#1f4b2b"/><rect x="162" y="143" width="11" height="11" rx="2" fill="#347d46"/><rect x="162" y="158" width="11" height="11" rx="2" fill="#286338"/><rect x="177" y="68" width="11" height="11" rx="2" fill="#18181b"/><rect x="177" y="83" width="11" height="11" rx="2" fill="#18181b"/><rect x="177" y="98" width="11" height="11" rx="2" fill="#1f4b2b"/><rect x="177" y="113" width="11" height="11" rx="2" fill="#1f4b2b"/><rect x="177" y="128" width="11" height="11" rx="2" fill="#18181b"/><rect x="177" y="143" width="11" height="11" rx="2" fill="#1f4b2b"/><rect x="177" y="158" width="11" height="11" rx="2" fill="#18181b"/><rect x="192" y="68" width="11" height="11" rx="2" fill="#46a35b"/><rect x="192" y="83" width="11" height="11" rx="2" fill="#18181b"/><rect x="192" y="98" width="11" height="11" rx="2" fill="#18181b"/><rect x="192" y="113" width="11" height="11" rx="2" fill="#286338"/><rect x="192" y="128" width="11" height="11" rx="2" fill="#18181b"/><rect x="192" y="143" width="11" height="11" rx="2" fill="#18181b"/><rect x="192" y="158" width="11" height="11" rx="2" fill="#18181b"/><rect x="207" y="68" width="11" height="11" rx="2" fill="#1f4b2b"/><rect x="207" y="83" width="11" height="11" rx="2" fill="#1f4b2b"/><rect x="207" y="98" width="11" height="11" rx="2" fill="#18181b"/><rect x="207" y="113" width="11" height="11" rx="2" fill="#18181b"/><rect x="207" y="128" width="11" height="11" rx="2" fill="#18181b"/><rect x="207" y="143" width="11" height="11" rx="2" fill="#347d46"/><rect x="207" y="158" width="11" height="11" rx="2" fill="#1f4b2b"/><rect x="222" y="68" width="11" height="11" rx="2" fill="#18181b"/><rect x="222" y="83" width="11" height="11" rx="2" fill="#1f4b2b"/><rect x="222" y="98" width="11" height="11" rx="2" fill="#46a35b"/><rect x="222" y="113" width="11" height="11" rx="2" fill="#18181b"/><rect x="222" y="128" width="11" height="11" rx="2" fill="#347d46"/><rect x="222" y="143" width="11" height="11" rx="2" fill="#347d46"/><rect x="222" y="158" width="11" height="11" rx="2" fill="#18181b"/><rect x="237" y="68" width="11" height="11" rx="2" fill="#18181b"/><rect x="237" y="83" width="11" height="11" rx="2" fill="#18181b"/><rect x="237" y="98" width="11" height="11" rx="2" fill="#18181b"/><rect x="237" y="113" width="11" height="11" rx="2" fill="#1f4b2b"/><rect x="237" y="128" width="11" height="11" rx="2" fill="#286338"/><rect x="237" y="143" width="11" height="11" rx="2" fill="#18181b"/><rect x="237" y="158" width="11" height="11" rx="2" fill="#347d46"/><rect x="252" y="68" width="11" height="11" rx="2" fill="#18181b"/><rect x="252" y="83" width="11" height="11" rx="2" fill="#347d46"/><rect x="252" y="98" width="11" height="11" rx="2" fill="#18181b"/><rect x="252" y="113" width="11" height="11" rx="2" fill="#18181b"/><rect x="252" y="128" width="11" height="11" rx="2" fill="#18181b"/><rect x="252" y="143" width="11" height="11" rx="2" fill="#18181b"/><rect x="252" y="158" width="11" height="11" rx="2" fill="#18181b"/><rect x="267" y="68" width="11" height="11" rx="2" fill="#46a35b"/><rect x="267" y="83" width="11" height="11" rx="2" fill="#1f4b2b"/><rect x="267" y="98" width="11" height="11" rx="2" fill="#18181b"/><rect x="267" y="113" width="11" height="11" rx="2" fill="#18181b"/><rect x="267" y="128" width="11" height="11" rx="2" fill="#1f4b2b"/><rect x="267" y="143" width="11" height="11" rx="2" fill="#18181b"/><rect x="267" y="158" width="11" height="11" rx="2" fill="#18181b"/><rect x="282" y="68" width="11" height="11" rx="2" fill="#18181b"/><rect x="282" y="83" width="11" height="11" rx="2" fill="#286338"/><rect x="282" y="98" width="11" height="11" rx="2" fill="#18181b"/><rect x="282" y="113" width="11" height="11" rx="2" fill="#286338"/><rect x="282" y="128" width="11" height="11" rx="2" fill="#347d46"/><rect x="282" y="143" width="11" height="11" rx="2" fill="#347d46"/><rect x="282" y="158" width="11" height="11" rx="2" fill="#18181b"/><rect x="297" y="68" width="11" height="11" rx="2" fill="#286338"/><rect x="297" y="83" width="11" height="11" rx="2" fill="#1f4b2b"/><rect x="297" y="98" width="11" height="11" rx="2" fill="#18181b"/><rect x="297" y="113" width="11" height="11" rx="2" fill="#18181b"/><rect x="297" y="128" width="11" height="11" rx="2" fill="#18181b"/><rect x="297" y="143" width="11" height="11" rx="2" fill="#18181b"/><rect x="297" y="158" width="11" height="11" rx="2" fill="#1f4b2b"/><rect x="312" y="68" width="11" height="11" rx="2" fill="#1f4b2b"/><rect x="312" y="83" width="11" height="11" rx="2" fill="#1f4b2b"/><rect x="312" y="98" width="11" height="11" rx="2" fill="#18181b"/><rect x="312" y="113" width="11" height="11" rx="2" fill="#46a35b"/><rect x="312" y="128" width="11" height="11" rx="2" fill="#347d46"/><rect x="312" y="143" width="11" height="11" rx="2" fill="#18181b"/><rect x="312" y="158" width="11" height="11" rx="2" fill="#347d46"/><rect x="327" y="68" width="11" height="11" rx="2" fill="#286338"/><rect x="327" y="83" width="11" height="11" rx="2" fill="#18181b"/><rect x="327" y="98" width="11" height="11" rx="2" fill="#286338"/><rect x="327" y="113" width="11" height="11" rx="2" fill="#1f4b2b"/><rect x="327" y="128" width="11" height="11" rx="2" fill="#1f4b2b"/><rect x="327" y="143" width="11" height="11" rx="2" fill="#18181b"/><rect x="327" y="158" width="11" height="11" rx="2" fill="#18181b"/><rect x="342" y="68" width="11" height="11" rx="2" fill="#347d46"/><rect x="342" y="83" width="11" height="11" rx="2" fill="#347d46"/><rect x="342" y="98" width="11" height="11" rx="2" fill="#18181b"/><rect x="342" y="113" width="11" height="11" rx="2" fill="#1f4b2b"/><rect x="342" y="128" width="11" height="11" rx="2" fill="#286338"/><rect x="342" y="143" width="11" height="11" rx="2" fill="#18181b"/><rect x="342" y="158" width="11" height="11" rx="2" fill="#18181b"/><rect x="357" y="68" width="11" height="11" rx="2" fill="#18181b"/><rect x="357" y="83" width="11" height="11" rx="2" fill="#46a35b"/><rect x="357" y="98" width="11" height="11" rx="2" fill="#18181b"/><rect x="357" y="113" width="11" height="11" rx="2" fill="#18181b"/><rect x="357" y="128" width="11" height="11" rx="2" fill="#286338"/><rect x="357" y="143" width="11" height="11" rx="2" fill="#18181b"/><rect x="357" y="158" width="11" height="11" rx="2" fill="#18181b"/><rect x="372" y="68" width="11" height="11" rx="2" fill="#46a35b"/><rect x="372" y="83" width="11" height="11" rx="2" fill="#1f4b2b"/><rect x="372" y="98" width="11" height="11" rx="2" fill="#18181b"/><rect x="372" y="113" width="11" height="11" rx="2" fill="#18181b"/><rect x="372" y="128" width="11" height="11" rx="2" fill="#1f4b2b"/><rect x="372" y="143" width="11" height="11" rx="2" fill="#18181b"/><rect x="372" y="158" width="11" height="11" rx="2" fill="#18181b"/><rect x="387" y="68" width="11" height="11" rx="2" fill="#1f4b2b"/><rect x="387" y="83" width="11" height="11" rx="2" fill="#18181b"/><rect x="387" y="98" width="11" height="11" rx="2" fill="#1f4b2b"/><rect x="387" y="113" width="11" height="11" rx="2" fill="#46a35b"/><rect x="387" y="128" width="11" height="11" rx="2" fill="#46a35b"/><rect x="387" y="143" width="11" height="11" rx="2" fill="#18181b"/><rect x="387" y="158" width="11" height="11" rx="2" fill="#286338"/><rect x="402" y="68" width="11" height="11" rx="2" fill="#18181b"/><rect x="402" y="83" width="11" height="11" rx="2" fill="#18181b"/><rect x="402" y="98" width="11" height="11" rx="2" fill="#18181b"/><rect x="402" y="113" width="11" height="11" rx="2" fill="#46a35b"/><rect x="402" y="128" width="11" height="11" rx="2" fill="#286338"/><rect x="402" y="143" width="11" height="11" rx="2" fill="#347d46"/><rect x="402" y="158" width="11" height="11" rx="2" fill="#18181b"/><rect x="417" y="68" width="11" height="11" rx="2" fill="#18181b"/><rect x="417" y="83" width="11" height="11" rx="2" fill="#18181b"/><rect x="417" y="98" width="11" height="11" rx="2" fill="#18181b"/><rect x="417" y="113" width="11" height="11" rx="2" fill="#286338"/><rect x="417" y="128" width="11" height="11" rx="2" fill="#1f4b2b"/><rect x="417" y="143" width="11" height="11" rx="2" fill="#347d46"/><rect x="417" y="158" width="11" height="11" rx="2" fill="#18181b"/><rect x="432" y="68" width="11" height="11" rx="2" fill="#18181b"/><rect x="432" y="83" width="11" height="11" rx="2" fill="#18181b"/><rect x="432" y="98" width="11" height="11" rx="2" fill="#347d46"/><rect x="432" y="113" width="11" height="11" rx="2" fill="#286338"/><rect x="432" y="128" width="11" height="11" rx="2" fill="#1f4b2b"/><rect x="432" y="143" width="11" height="11" rx="2" fill="#18181b"/><rect x="432" y="158" width="11" height="11" rx="2" fill="#1f4b2b"/><rect x="447" y="68" width="11" height="11" rx="2" fill="#1f4b2b"/><rect x="447" y="83" width="11" height="11" rx="2" fill="#1f4b2b"/><rect x="447" y="98" width="11" height="11" rx="2" fill="#18181b"/><rect x="447" y="113" width="11" height="11" rx="2" fill="#1f4b2b"/><rect x="447" y="128" width="11" height="11" rx="2" fill="#46a35b"/><rect x="447" y="143" width="11" height="11" rx="2" fill="#46a35b"/><rect x="447" y="158" width="11" height="11" rx="2" fill="#347d46"/><rect x="462" y="68" width="11" height="11" rx="2" fill="#18181b"/><rect x="462" y="83" width="11" height="11" rx="2" fill="#1f4b2b"/><rect x="462" y="98" width="11" height="11" rx="2" fill="#18181b"/><rect x="462" y="113" width="11" height="11" rx="2" fill="#18181b"/><rect x="462" y="128" width="11" height="11" rx="2" fill="#18181b"/><rect x="462" y="143" width="11" height="11" rx="2" fill="#286338"/><rect x="462" y="158" width="11" height="11" rx="2" fill="#347d46"/><rect x="477" y="68" width="11" height="11" rx="2" fill="#18181b"/><rect x="477" y="83" width="11" height="11" rx="2" fill="#347d46"/><rect x="477" y="98" width="11" height="11" rx="2" fill="#18181b"/><rect x="477" y="113" width="11" height="11" rx="2" fill="#18181b"/><rect x="477" y="128" width="11" height="11" rx="2" fill="#286338"/><rect x="477" y="143" width="11" height="11" rx="2" fill="#18181b"/><rect x="477" y="158" width="11" height="11" rx="2" fill="#18181b"/><rect x="492" y="68" width="11" height="11" rx="2" fill="#18181b"/><rect x="492" y="83" width="11" height="11" rx="2" fill="#18181b"/><rect x="492" y="98" width="11" height="11" rx="2" fill="#1f4b2b"/><rect x="492" y="113" width="11" height="11" rx="2" fill="#46a35b"/><rect x="492" y="128" width="11" height="11" rx="2" fill="#347d46"/><rect x="492" y="143" width="11" height="11" rx="2" fill="#1f4b2b"/><rect x="492" y="158" width="11" height="11" rx="2" fill="#1f4b2b"/><rect x="507" y="68" width="11" height="11" rx="2" fill="#18181b"/><rect x="507" y="83" width="11" height="11" rx="2" fill="#1f4b2b"/><rect x="507" y="98" width="11" height="11" rx="2" fill="#18181b"/><rect x="507" y="113" width="11" height="11" rx="2" fill="#18181b"/><rect x="507" y="128" width="11" height="11" rx="2" fill="#347d46"/><rect x="507" y="143" width="11" height="11" rx="2" fill="#1f4b2b"/><rect x="507" y="158" width="11" height="11" rx="2" fill="#18181b"/><rect x="522" y="68" width="11" height="11" rx="2" fill="#1f4b2b"/><rect x="522" y="83" width="11" height="11" rx="2" fill="#18181b"/><rect x="522" y="98" width="11" height="11" rx="2" fill="#286338"/><rect x="522" y="113" width="11" height="11" rx="2" fill="#18181b"/><rect x="522" y="128" width="11" height="11" rx="2" fill="#1f4b2b"/><rect x="522" y="143" width="11" height="11" rx="2" fill="#18181b"/><rect x="522" y="158" width="11" height="11" rx="2" fill="#18181b"/><rect x="537" y="68" width="11" height="11" rx="2" fill="#18181b"/><rect x="537" y="83" width="11" height="11" rx="2" fill="#18181b"/><rect x="537" y="98" width="11" height="11" rx="2" fill="#347d46"/><rect x="537" y="113" width="11" height="11" rx="2" fill="#18181b"/><rect x="537" y="128" width="11" height="11" rx="2" fill="#286338"/><rect x="537" y="143" width="11" height="11" rx="2" fill="#18181b"/><rect x="537" y="158" width="11" height="11" rx="2" fill="#286338"/><rect x="552" y="68" width="11" height="11" rx="2" fill="#347d46"/><rect x="552" y="83" width="11" height="11" rx="2" fill="#46a35b"/><rect x="552" y="98" width="11" height="11" rx="2" fill="#1f4b2b"/><rect x="552" y="113" width="11" height="11" rx="2" fill="#18181b"/><rect x="552" y="128" width="11" height="11" rx="2" fill="#18181b"/><rect x="552" y="143" width="11" height="11" rx="2" fill="#18181b"/><rect x="552" y="158" width="11" height="11" rx="2" fill="#347d46"/><rect x="567" y="68" width="11" height="11" rx="2" fill="#286338"/><rect x="567" y="83" width="11" height="11" rx="2" fill="#286338"/><rect x="567" y="98" width="11" height="11" rx="2" fill="#18181b"/><rect x="567" y="113" width="11" height="11" rx="2" fill="#18181b"/><rect x="567" y="128" width="11" height="11" rx="2" fill="#1f4b2b"/><rect x="567" y="143" width="11" height="11" rx="2" fill="#18181b"/><rect x="567" y="158" width="11" height="11" rx="2" fill="#1f4b2b"/><rect x="582" y="68" width="11" height="11" rx="2" fill="#18181b"/><rect x="582" y="83" width="11" height="11" rx="2" fill="#18181b"/><rect x="582" y="98" width="11" height="11" rx="2" fill="#1f4b2b"/><rect x="582" y="113" width="11" height="11" rx="2" fill="#18181b"/><rect x="582" y="128" width="11" height="11" rx="2" fill="#1f4b2b"/><rect x="582" y="143" width="11" height="11" rx="2" fill="#18181b"/><rect x="582" y="158" width="11" height="11" rx="2" fill="#18181b"/><rect x="597" y="68" width="11" height="11" rx="2" fill="#347d46"/><rect x="597" y="83" width="11" height="11" rx="2" fill="#347d46"/><rect x="597" y="98" width="11" height="11" rx="2" fill="#286338"/><rect x="597" y="113" width="11" height="11" rx="2" fill="#18181b"/><rect x="597" y="128" width="11" height="11" rx="2" fill="#1f4b2b"/><rect x="597" y="143" width="11" height="11" rx="2" fill="#1f4b2b"/><rect x="597" y="158" width="11" height="11" rx="2" fill="#18181b"/><rect x="612" y="68" width="11" height="11" rx="2" fill="#46a35b"/><rect x="612" y="83" width="11" height="11" rx="2" fill="#18181b"/><rect x="612" y="98" width="11" height="11" rx="2" fill="#18181b"/><rect x="612" y="113" width="11" height="11" rx="2" fill="#46a35b"/><rect x="612" y="128" width="11" height="11" rx="2" fill="#1f4b2b"/><rect x="612" y="143" width="11" height="11" rx="2" fill="#347d46"/><rect x="612" y="158" width="11" height="11" rx="2" fill="#347d46"/><rect x="627" y="68" width="11" height="11" rx="2" fill="#18181b"/><rect x="627" y="83" width="11" height="11" rx="2" fill="#18181b"/><rect x="627" y="98" width="11" height="11" rx="2" fill="#1f4b2b"/><rect x="627" y="113" width="11" height="11" rx="2" fill="#286338"/><rect x="627" y="128" width="11" height="11" rx="2" fill="#18181b"/><rect x="627" y="143" width="11" height="11" rx="2" fill="#1f4b2b"/><rect x="627" y="158" width="11" height="11" rx="2" fill="#18181b"/><rect x="642" y="68" width="11" height="11" rx="2" fill="#18181b"/><rect x="642" y="83" width="11" height="11" rx="2" fill="#18181b"/><rect x="642" y="98" width="11" height="11" rx="2" fill="#18181b"/><rect x="642" y="113" width="11" height="11" rx="2" fill="#18181b"/><rect x="642" y="128" width="11" height="11" rx="2" fill="#286338"/><rect x="642" y="143" width="11" height="11" rx="2" fill="#18181b"/><rect x="642" y="158" width="11" height="11" rx="2" fill="#18181b"/><rect x="657" y="68" width="11" height="11" rx="2" fill="#18181b"/><rect x="657" y="83" width="11" height="11" rx="2" fill="#347d46"/><rect x="657" y="98" width="11" height="11" rx="2" fill="#18181b"/><rect x="657" y="113" width="11" height="11" rx="2" fill="#286338"/><rect x="657" y="128" width="11" height="11" rx="2" fill="#18181b"/><rect x="657" y="143" width="11" height="11" rx="2" fill="#18181b"/><rect x="657" y="158" width="11" height="11" rx="2" fill="#286338"/><rect x="672" y="68" width="11" height="11" rx="2" fill="#18181b"/><rect x="672" y="83" width="11" height="11" rx="2" fill="#347d46"/><rect x="672" y="98" width="11" height="11" rx="2" fill="#1f4b2b"/><rect x="672" y="113" width="11" height="11" rx="2" fill="#18181b"/><rect x="672" y="128" width="11" height="11" rx="2" fill="#1f4b2b"/><rect x="672" y="143" width="11" height="11" rx="2" fill="#1f4b2b"/><rect x="672" y="158" width="11" height="11" rx="2" fill="#18181b"/><rect x="687" y="68" width="11" height="11" rx="2" fill="#1f4b2b"/><rect x="687" y="83" width="11" height="11" rx="2" fill="#18181b"/><rect x="687" y="98" width="11" height="11" rx="2" fill="#1f4b2b"/><rect x="687" y="113" width="11" height="11" rx="2" fill="#46a35b"/><rect x="687" y="128" width="11" height="11" rx="2" fill="#18181b"/><rect x="687" y="143" width="11" height="11" rx="2" fill="#1f4b2b"/><rect x="687" y="158" width="11" height="11" rx="2" fill="#18181b"/><rect x="702" y="68" width="11" height="11" rx="2" fill="#347d46"/><rect x="702" y="83" width="11" height="11" rx="2" fill="#18181b"/><rect x="702" y="98" width="11" height="11" rx="2" fill="#18181b"/><rect x="702" y="113" width="11" height="11" rx="2" fill="#18181b"/><rect x="702" y="128" width="11" height="11" rx="2" fill="#18181b"/><rect x="702" y="143" width="11" height="11" rx="2" fill="#18181b"/><rect x="702" y="158" width="11" height="11" rx="2" fill="#1f4b2b"/><rect x="717" y="68" width="11" height="11" rx="2" fill="#18181b"/><rect x="717" y="83" width="11" height="11" rx="2" fill="#18181b"/><rect x="717" y="98" width="11" height="11" rx="2" fill="#286338"/><rect x="717" y="113" width="11" height="11" rx="2" fill="#18181b"/><rect x="717" y="128" width="11" height="11" rx="2" fill="#18181b"/><rect x="717" y="143" width="11" height="11" rx="2" fill="#18181b"/><rect x="717" y="158" width="11" height="11" rx="2" fill="#18181b"/><rect x="732" y="68" width="11" height="11" rx="2" fill="#18181b"/><rect x="732" y="83" width="11" height="11" rx="2" fill="#18181b"/><rect x="732" y="98" width="11" height="11" rx="2" fill="#18181b"/><rect x="732" y="113" width="11" height="11" rx="2" fill="#18181b"/><rect x="732" y="128" width="11" height="11" rx="2" fill="#1f4b2b"/><rect x="732" y="143" width="11" height="11" rx="2" fill="#18181b"/><rect x="732" y="158" width="11" height="11" rx="2" fill="#18181b"/><rect x="747" y="68" width="11" height="11" rx="2" fill="#18181b"/><rect x="747" y="83" width="11" height="11" rx="2" fill="#1f4b2b"/><rect x="747" y="98" width="11" height="11" rx="2" fill="#18181b"/><rect x="747" y="113" width="11" height="11" rx="2" fill="#18181b"/><rect x="747" y="128" width="11" height="11" rx="2" fill="#18181b"/><rect x="747" y="143" width="11" height="11" rx="2" fill="#18181b"/><rect x="747" y="158" width="11" height="11" rx="2" fill="#347d46"/><rect x="762" y="68" width="11" height="11" rx="2" fill="#46a35b"/><rect x="762" y="83" width="11" height="11" rx="2" fill="#1f4b2b"/><rect x="762" y="98" width="11" height="11" rx="2" fill="#18181b"/><rect x="762" y="113" width="11" height="11" rx="2" fill="#18181b"/><rect x="762" y="128" width="11" height="11" rx="2" fill="#18181b"/><rect x="762" y="143" width="11" height="11" rx="2" fill="#18181b"/><rect x="762" y="158" width="11" height="11" rx="2" fill="#18181b"/><rect x="777" y="68" width="11" height="11" rx="2" fill="#18181b"/><rect x="777" y="83" width="11" height="11" rx="2" fill="#1f4b2b"/><rect x="777" y="98" width="11" height="11" rx="2" fill="#18181b"/><rect x="777" y="113" width="11" height="11" rx="2" fill="#286338"/><rect x="777" y="128" width="11" height="11" rx="2" fill="#18181b"/><rect x="777" y="143" width="11" height="11" rx="2" fill="#18181b"/><rect x="777" y="158" width="11" height="11" rx="2" fill="#18181b"/><rect x="792" y="68" width="11" height="11" rx="2" fill="#18181b"/><rect x="792" y="83" width="11" height="11" rx="2" fill="#1f4b2b"/><rect x="792" y="98" width="11" height="11" rx="2" fill="#46a35b"/><rect x="792" y="113" width="11" height="11" rx="2" fill="#18181b"/><rect x="792" y="128" width="11" height="11" rx="2" fill="#18181b"/><rect x="792" y="143" width="11" height="11" rx="2" fill="#18181b"/><rect x="792" y="158" width="11" height="11" rx="2" fill="#18181b"/><rect x="807" y="68" width="11" height="11" rx="2" fill="#286338"/><rect x="807" y="83" width="11" height="11" rx="2" fill="#1f4b2b"/><rect x="807" y="98" width="11" height="11" rx="2" fill="#286338"/><rect x="807" y="113" width="11" height="11" rx="2" fill="#18181b"/><rect x="807" y="128" width="11" height="11" rx="2" fill="#46a35b"/><rect x="807" y="143" width="11" height="11" rx="2" fill="#347d46"/><rect x="807" y="158" width="11" height="11" rx="2" fill="#18181b"/><rect width="13" height="13" rx="2" fill="#df3541" opacity="1.00"><animate attributeName="x" values="42;42;42;42;42;42;42;57;57;57;57;57;57;57;72;72;72;72;72;72;72;87;87;87;87;87;87;87;102;102;102;102;102;102;102;117;117;117;117;117;117;117;132;132;132;132;132;132;132;147;147;147;147;147;147;147;162;162;162;162;162;162;162;177;177;177;177;177;177;177;192;192;192;192;192;192;192;207;207;207;207;207;207;207;222;222;222;222;222;222;222;237;237;237;237;237;237;237;252;252;252;252;252;252;252;267;267;267;267;267;267;267;282;282;282;282;282;282;282;297;297;297;297;297;297;297;312;312;312;312;312;312;312;327;327;327;327;327;327;327;342;342;342;342;342;342;342;357;357;357;357;357;357;357;372;372;372;372;372;372;372;387;387;387;387;387;387;387;402;402;402;402;402;402;402;417;417;417;417;417;417;417;432;432;432;432;432;432;432;447;447;447;447;447;447;447;462;462;462;462;462;462;462;477;477;477;477;477;477;477;492;492;492;492;492;492;492;507;507;507;507;507;507;507;522;522;522;522;522;522;522;537;537;537;537;537;537;537;552;552;552;552;552;552;552;567;567;567;567;567;567;567;582;582;582;582;582;582;582;597;597;597;597;597;597;597;612;612;612;612;612;612;612;627;627;627;627;627;627;627;642;642;642;642;642;642;642;657;657;657;657;657;657;657;672;672;672;672;672;672;672;687;687;687;687;687;687;687;702;702;702;702;702;702;702;717;717;717;717;717;717;717;732;732;732;732;732;732;732;747;747;747;747;747;747;747;762;762;762;762;762;762;762;777;777;777;777;777;777;777;792;792;792;792;792;792;792;807;807;807;807;807;807;807" dur="10.5s" repeatCount="indefinite" calcMode="discrete"/><animate attributeName="y" values="68;83;98;113;128;143;158;158;143;128;113;98;83;68;68;83;98;113;128;143;158;158;143;128;113;98;83;68;68;83;98;113;128;143;158;158;143;128;113;98;83;68;68;83;98;113;128;143;158;158;143;128;113;98;83;68;68;83;98;113;128;143;158;158;143;128;113;98;83;68;68;83;98;113;128;143;158;158;143;128;113;98;83;68;68;83;98;113;128;143;158;158;143;128;113;98;83;68;68;83;98;113;128;143;158;158;143;128;113;98;83;68;68;83;98;113;128;143;158;158;143;128;113;98;83;68;68;83;98;113;128;143;158;158;143;128;113;98;83;68;68;83;98;113;128;143;158;158;143;128;113;98;83;68;68;83;98;113;128;143;158;158;143;128;113;98;83;68;68;83;98;113;128;143;158;158;143;128;113;98;83;68;68;83;98;113;128;143;158;158;143;128;113;98;83;68;68;83;98;113;128;143;158;158;143;128;113;98;83;68;68;83;98;113;128;143;158;158;143;128;113;98;83;68;68;83;98;113;128;143;158;158;143;128;113;98;83;68;68;83;98;113;128;143;158;158;143;128;113;98;83;68;68;83;98;113;128;143;158;158;143;128;113;98;83;68;68;83;98;113;128;143;158;158;143;128;113;98;83;68;68;83;98;113;128;143;158;158;143;128;113;98;83;68;68;83;98;113;128;143;158;158;143;128;113;98;83;68;68;83;98;113;128;143;158;158;143;128;113;98;83;68;68;83;98;113;128;143;158;158;143;128;113;98;83;68;68;83;98;113;128;143;158;158;143;128;113;98;83;68;68;83;98;113;128;143;158;158;143;128;113;98;83;68" dur="10.5s" repeatCount="indefinite" calcMode="discrete"/></rect><rect width="13" height="13" rx="2" fill="#df3541" opacity="0.88"><animate attributeName="x" values="807;42;42;42;42;42;42;42;57;57;57;57;57;57;57;72;72;72;72;72;72;72;87;87;87;87;87;87;87;102;102;102;102;102;102;102;117;117;117;117;117;117;117;132;132;132;132;132;132;132;147;147;147;147;147;147;147;162;162;162;162;162;162;162;177;177;177;177;177;177;177;192;192;192;192;192;192;192;207;207;207;207;207;207;207;222;222;222;222;222;222;222;237;237;237;237;237;237;237;252;252;252;252;252;252;252;267;267;267;267;267;267;267;282;282;282;282;282;282;282;297;297;297;297;297;297;297;312;312;312;312;312;312;312;327;327;327;327;327;327;327;342;342;342;342;342;342;342;357;357;357;357;357;357;357;372;372;372;372;372;372;372;387;387;387;387;387;387;387;402;402;402;402;402;402;402;417;417;417;417;417;417;417;432;432;432;432;432;432;432;447;447;447;447;447;447;447;462;462;462;462;462;462;462;477;477;477;477;477;477;477;492;492;492;492;492;492;492;507;507;507;507;507;507;507;522;522;522;522;522;522;522;537;537;537;537;537;537;537;552;552;552;552;552;552;552;567;567;567;567;567;567;567;582;582;582;582;582;582;582;597;597;597;597;597;597;597;612;612;612;612;612;612;612;627;627;627;627;627;627;627;642;642;642;642;642;642;642;657;657;657;657;657;657;657;672;672;672;672;672;672;672;687;687;687;687;687;687;687;702;702;702;702;702;702;702;717;717;717;717;717;717;717;732;732;732;732;732;732;732;747;747;747;747;747;747;747;762;762;762;762;762;762;762;777;777;777;777;777;777;777;792;792;792;792;792;792;792;807;807;807;807;807;807" dur="10.5s" repeatCount="indefinite" calcMode="discrete"/><animate attributeName="y" values="68;68;83;98;113;128;143;158;158;143;128;113;98;83;68;68;83;98;113;128;143;158;158;143;128;113;98;83;68;68;83;98;113;128;143;158;158;143;128;113;98;83;68;68;83;98;113;128;143;158;158;143;128;113;98;83;68;68;83;98;113;128;143;158;158;143;128;113;98;83;68;68;83;98;113;128;143;158;158;143;128;113;98;83;68;68;83;98;113;128;143;158;158;143;128;113;98;83;68;68;83;98;113;128;143;158;158;143;128;113;98;83;68;68;83;98;113;128;143;158;158;143;128;113;98;83;68;68;83;98;113;128;143;158;158;143;128;113;98;83;68;68;83;98;113;128;143;158;158;143;128;113;98;83;68;68;83;98;113;128;143;158;158;143;128;113;98;83;68;68;83;98;113;128;143;158;158;143;128;113;98;83;68;68;83;98;113;128;143;158;158;143;128;113;98;83;68;68;83;98;113;128;143;158;158;143;128;113;98;83;68;68;83;98;113;128;143;158;158;143;128;113;98;83;68;68;83;98;113;128;143;158;158;143;128;113;98;83;68;68;83;98;113;128;143;158;158;143;128;113;98;83;68;68;83;98;113;128;143;158;158;143;128;113;98;83;68;68;83;98;113;128;143;158;158;143;128;113;98;83;68;68;83;98;113;128;143;158;158;143;128;113;98;83;68;68;83;98;113;128;143;158;158;143;128;113;98;83;68;68;83;98;113;128;143;158;158;143;128;113;98;83;68;68;83;98;113;128;143;158;158;143;128;113;98;83;68;68;83;98;113;128;143;158;158;143;128;113;98;83;68;68;83;98;113;128;143;158;158;143;128;113;98;83" dur="10.5s" repeatCount="indefinite" calcMode="discrete"/></rect><rect width="13" height="13" rx="2" fill="#df3541" opacity="0.76"><animate attributeName="x" values="807;807;42;42;42;42;42;42;42;57;57;57;57;57;57;57;72;72;72;72;72;72;72;87;87;87;87;87;87;87;102;102;102;102;102;102;102;117;117;117;117;117;117;117;132;132;132;132;132;132;132;147;147;147;147;147;147;147;162;162;162;162;162;162;162;177;177;177;177;177;177;177;192;192;192;192;192;192;192;207;207;207;207;207;207;207;222;222;222;222;222;222;222;237;237;237;237;237;237;237;252;252;252;252;252;252;252;267;267;267;267;267;267;267;282;282;282;282;282;282;282;297;297;297;297;297;297;297;312;312;312;312;312;312;312;327;327;327;327;327;327;327;342;342;342;342;342;342;342;357;357;357;357;357;357;357;372;372;372;372;372;372;372;387;387;387;387;387;387;387;402;402;402;402;402;402;402;417;417;417;417;417;417;417;432;432;432;432;432;432;432;447;447;447;447;447;447;447;462;462;462;462;462;462;462;477;477;477;477;477;477;477;492;492;492;492;492;492;492;507;507;507;507;507;507;507;522;522;522;522;522;522;522;537;537;537;537;537;537;537;552;552;552;552;552;552;552;567;567;567;567;567;567;567;582;582;582;582;582;582;582;597;597;597;597;597;597;597;612;612;612;612;612;612;612;627;627;627;627;627;627;627;642;642;642;642;642;642;642;657;657;657;657;657;657;657;672;672;672;672;672;672;672;687;687;687;687;687;687;687;702;702;702;702;702;702;702;717;717;717;717;717;717;717;732;732;732;732;732;732;732;747;747;747;747;747;747;747;762;762;762;762;762;762;762;777;777;777;777;777;777;777;792;792;792;792;792;792;792;807;807;807;807;807" dur="10.5s" repeatCount="indefinite" calcMode="discrete"/><animate attributeName="y" values="83;68;68;83;98;113;128;143;158;158;143;128;113;98;83;68;68;83;98;113;128;143;158;158;143;128;113;98;83;68;68;83;98;113;128;143;158;158;143;128;113;98;83;68;68;83;98;113;128;143;158;158;143;128;113;98;83;68;68;83;98;113;128;143;158;158;143;128;113;98;83;68;68;83;98;113;128;143;158;158;143;128;113;98;83;68;68;83;98;113;128;143;158;158;143;128;113;98;83;68;68;83;98;113;128;143;158;158;143;128;113;98;83;68;68;83;98;113;128;143;158;158;143;128;113;98;83;68;68;83;98;113;128;143;158;158;143;128;113;98;83;68;68;83;98;113;128;143;158;158;143;128;113;98;83;68;68;83;98;113;128;143;158;158;143;128;113;98;83;68;68;83;98;113;128;143;158;158;143;128;113;98;83;68;68;83;98;113;128;143;158;158;143;128;113;98;83;68;68;83;98;113;128;143;158;158;143;128;113;98;83;68;68;83;98;113;128;143;158;158;143;128;113;98;83;68;68;83;98;113;128;143;158;158;143;128;113;98;83;68;68;83;98;113;128;143;158;158;143;128;113;98;83;68;68;83;98;113;128;143;158;158;143;128;113;98;83;68;68;83;98;113;128;143;158;158;143;128;113;98;83;68;68;83;98;113;128;143;158;158;143;128;113;98;83;68;68;83;98;113;128;143;158;158;143;128;113;98;83;68;68;83;98;113;128;143;158;158;143;128;113;98;83;68;68;83;98;113;128;143;158;158;143;128;113;98;83;68;68;83;98;113;128;143;158;158;143;128;113;98;83;68;68;83;98;113;128;143;158;158;143;128;113;98" dur="10.5s" repeatCount="indefinite" calcMode="discrete"/></rect><rect width="13" height="13" rx="2" fill="#df3541" opacity="0.64"><animate attributeName="x" values="807;807;807;42;42;42;42;42;42;42;57;57;57;57;57;57;57;72;72;72;72;72;72;72;87;87;87;87;87;87;87;102;102;102;102;102;102;102;117;117;117;117;117;117;117;132;132;132;132;132;132;132;147;147;147;147;147;147;147;162;162;162;162;162;162;162;177;177;177;177;177;177;177;192;192;192;192;192;192;192;207;207;207;207;207;207;207;222;222;222;222;222;222;222;237;237;237;237;237;237;237;252;252;252;252;252;252;252;267;267;267;267;267;267;267;282;282;282;282;282;282;282;297;297;297;297;297;297;297;312;312;312;312;312;312;312;327;327;327;327;327;327;327;342;342;342;342;342;342;342;357;357;357;357;357;357;357;372;372;372;372;372;372;372;387;387;387;387;387;387;387;402;402;402;402;402;402;402;417;417;417;417;417;417;417;432;432;432;432;432;432;432;447;447;447;447;447;447;447;462;462;462;462;462;462;462;477;477;477;477;477;477;477;492;492;492;492;492;492;492;507;507;507;507;507;507;507;522;522;522;522;522;522;522;537;537;537;537;537;537;537;552;552;552;552;552;552;552;567;567;567;567;567;567;567;582;582;582;582;582;582;582;597;597;597;597;597;597;597;612;612;612;612;612;612;612;627;627;627;627;627;627;627;642;642;642;642;642;642;642;657;657;657;657;657;657;657;672;672;672;672;672;672;672;687;687;687;687;687;687;687;702;702;702;702;702;702;702;717;717;717;717;717;717;717;732;732;732;732;732;732;732;747;747;747;747;747;747;747;762;762;762;762;762;762;762;777;777;777;777;777;777;777;792;792;792;792;792;792;792;807;807;807;807" dur="10.5s" repeatCount="indefinite" calcMode="discrete"/><animate attributeName="y" values="98;83;68;68;83;98;113;128;143;158;158;143;128;113;98;83;68;68;83;98;113;128;143;158;158;143;128;113;98;83;68;68;83;98;113;128;143;158;158;143;128;113;98;83;68;68;83;98;113;128;143;158;158;143;128;113;98;83;68;68;83;98;113;128;143;158;158;143;128;113;98;83;68;68;83;98;113;128;143;158;158;143;128;113;98;83;68;68;83;98;113;128;143;158;158;143;128;113;98;83;68;68;83;98;113;128;143;158;158;143;128;113;98;83;68;68;83;98;113;128;143;158;158;143;128;113;98;83;68;68;83;98;113;128;143;158;158;143;128;113;98;83;68;68;83;98;113;128;143;158;158;143;128;113;98;83;68;68;83;98;113;128;143;158;158;143;128;113;98;83;68;68;83;98;113;128;143;158;158;143;128;113;98;83;68;68;83;98;113;128;143;158;158;143;128;113;98;83;68;68;83;98;113;128;143;158;158;143;128;113;98;83;68;68;83;98;113;128;143;158;158;143;128;113;98;83;68;68;83;98;113;128;143;158;158;143;128;113;98;83;68;68;83;98;113;128;143;158;158;143;128;113;98;83;68;68;83;98;113;128;143;158;158;143;128;113;98;83;68;68;83;98;113;128;143;158;158;143;128;113;98;83;68;68;83;98;113;128;143;158;158;143;128;113;98;83;68;68;83;98;113;128;143;158;158;143;128;113;98;83;68;68;83;98;113;128;143;158;158;143;128;113;98;83;68;68;83;98;113;128;143;158;158;143;128;113;98;83;68;68;83;98;113;128;143;158;158;143;128;113;98;83;68;68;83;98;113;128;143;158;158;143;128;113" dur="10.5s" repeatCount="indefinite" calcMode="discrete"/></rect><rect width="13" height="13" rx="2" fill="#df3541" opacity="0.52"><animate attributeName="x" values="807;807;807;807;42;42;42;42;42;42;42;57;57;57;57;57;57;57;72;72;72;72;72;72;72;87;87;87;87;87;87;87;102;102;102;102;102;102;102;117;117;117;117;117;117;117;132;132;132;132;132;132;132;147;147;147;147;147;147;147;162;162;162;162;162;162;162;177;177;177;177;177;177;177;192;192;192;192;192;192;192;207;207;207;207;207;207;207;222;222;222;222;222;222;222;237;237;237;237;237;237;237;252;252;252;252;252;252;252;267;267;267;267;267;267;267;282;282;282;282;282;282;282;297;297;297;297;297;297;297;312;312;312;312;312;312;312;327;327;327;327;327;327;327;342;342;342;342;342;342;342;357;357;357;357;357;357;357;372;372;372;372;372;372;372;387;387;387;387;387;387;387;402;402;402;402;402;402;402;417;417;417;417;417;417;417;432;432;432;432;432;432;432;447;447;447;447;447;447;447;462;462;462;462;462;462;462;477;477;477;477;477;477;477;492;492;492;492;492;492;492;507;507;507;507;507;507;507;522;522;522;522;522;522;522;537;537;537;537;537;537;537;552;552;552;552;552;552;552;567;567;567;567;567;567;567;582;582;582;582;582;582;582;597;597;597;597;597;597;597;612;612;612;612;612;612;612;627;627;627;627;627;627;627;642;642;642;642;642;642;642;657;657;657;657;657;657;657;672;672;672;672;672;672;672;687;687;687;687;687;687;687;702;702;702;702;702;702;702;717;717;717;717;717;717;717;732;732;732;732;732;732;732;747;747;747;747;747;747;747;762;762;762;762;762;762;762;777;777;777;777;777;777;777;792;792;792;792;792;792;792;807;807;807" dur="10.5s" repeatCount="indefinite" calcMode="discrete"/><animate attributeName="y" values="113;98;83;68;68;83;98;113;128;143;158;158;143;128;113;98;83;68;68;83;98;113;128;143;158;158;143;128;113;98;83;68;68;83;98;113;128;143;158;158;143;128;113;98;83;68;68;83;98;113;128;143;158;158;143;128;113;98;83;68;68;83;98;113;128;143;158;158;143;128;113;98;83;68;68;83;98;113;128;143;158;158;143;128;113;98;83;68;68;83;98;113;128;143;158;158;143;128;113;98;83;68;68;83;98;113;128;143;158;158;143;128;113;98;83;68;68;83;98;113;128;143;158;158;143;128;113;98;83;68;68;83;98;113;128;143;158;158;143;128;113;98;83;68;68;83;98;113;128;143;158;158;143;128;113;98;83;68;68;83;98;113;128;143;158;158;143;128;113;98;83;68;68;83;98;113;128;143;158;158;143;128;113;98;83;68;68;83;98;113;128;143;158;158;143;128;113;98;83;68;68;83;98;113;128;143;158;158;143;128;113;98;83;68;68;83;98;113;128;143;158;158;143;128;113;98;83;68;68;83;98;113;128;143;158;158;143;128;113;98;83;68;68;83;98;113;128;143;158;158;143;128;113;98;83;68;68;83;98;113;128;143;158;158;143;128;113;98;83;68;68;83;98;113;128;143;158;158;143;128;113;98;83;68;68;83;98;113;128;143;158;158;143;128;113;98;83;68;68;83;98;113;128;143;158;158;143;128;113;98;83;68;68;83;98;113;128;143;158;158;143;128;113;98;83;68;68;83;98;113;128;143;158;158;143;128;113;98;83;68;68;83;98;113;128;143;158;158;143;128;113;98;83;68;68;83;98;113;128;143;158;158;143;128" dur="10.5s" repeatCount="indefinite" calcMode="discrete"/></rect><text class="m" x="42" y="210" font-size="12" fill="#77716d">PREVIEW // WORKFLOW REPLACES WITH REAL CONTRIBUTIONS</text><text class="m" x="780" y="210" font-size="12" fill="#d93642">LIVE_</text></svg>